<mxfile host="app.diagrams.net" modified="2024-03-04T17:38:49.443Z" agent="Mozilla/5.0 (Windows NT 10.0; Win64; x64) AppleWebKit/537.36 (KHTML, like Gecko) Chrome/122.0.0.0 Safari/537.36" etag="4gbx6kZt2uzHa2WmkBdr" version="21.3.4" type="device">
  <diagram name="Страница 1" id="9LuI2_xqMuIHMLWsYBJ_">
    <mxGraphModel dx="2153" dy="1265" grid="0" gridSize="10" guides="1" tooltips="1" connect="1" arrows="1" fold="1" page="1" pageScale="1" pageWidth="827" pageHeight="1169" math="0" shadow="0">
      <root>
        <mxCell id="0" />
        <mxCell id="1" parent="0" />
        <mxCell id="u4SSPRo8e84aIvEriqBu-5" value="&#xa;Попросить удостоверение личности&#xa;&#xa;" style="rounded=0;whiteSpace=wrap;html=1;" vertex="1" parent="1">
          <mxGeometry x="313" y="257" width="120" height="60" as="geometry" />
        </mxCell>
        <mxCell id="u4SSPRo8e84aIvEriqBu-6" value="&#xa;Книга выдана&#xa;&#xa;" style="shape=hexagon;perimeter=hexagonPerimeter2;whiteSpace=wrap;html=1;fixedSize=1;" vertex="1" parent="1">
          <mxGeometry x="467" y="1217" width="120" height="80" as="geometry" />
        </mxCell>
        <mxCell id="u4SSPRo8e84aIvEriqBu-8" value="&#xa;Внести в БД&#xa;информацию&#xa;&#xa;" style="rounded=0;whiteSpace=wrap;html=1;" vertex="1" parent="1">
          <mxGeometry x="313" y="514" width="120" height="60" as="geometry" />
        </mxCell>
        <mxCell id="u4SSPRo8e84aIvEriqBu-9" value="&#xa;&lt;br style=&quot;border-color: var(--border-color); color: rgb(0, 0, 0); font-family: Helvetica; font-size: 12px; font-style: normal; font-variant-ligatures: normal; font-variant-caps: normal; font-weight: 400; letter-spacing: normal; orphans: 2; text-align: center; text-indent: 0px; text-transform: none; widows: 2; word-spacing: 0px; -webkit-text-stroke-width: 0px; background-color: rgb(251, 251, 251); text-decoration-thickness: initial; text-decoration-style: initial; text-decoration-color: initial;&quot;&gt;&lt;span style=&quot;color: rgb(0, 0, 0); font-family: Helvetica; font-size: 12px; font-style: normal; font-variant-ligatures: normal; font-variant-caps: normal; font-weight: 400; letter-spacing: normal; orphans: 2; text-align: center; text-indent: 0px; text-transform: none; widows: 2; word-spacing: 0px; -webkit-text-stroke-width: 0px; background-color: rgb(251, 251, 251); text-decoration-thickness: initial; text-decoration-style: initial; text-decoration-color: initial; float: none; display: inline !important;&quot;&gt;Удостоверение личности&lt;/span&gt;&lt;br style=&quot;border-color: var(--border-color); color: rgb(0, 0, 0); font-family: Helvetica; font-size: 12px; font-style: normal; font-variant-ligatures: normal; font-variant-caps: normal; font-weight: 400; letter-spacing: normal; orphans: 2; text-align: center; text-indent: 0px; text-transform: none; widows: 2; word-spacing: 0px; -webkit-text-stroke-width: 0px; background-color: rgb(251, 251, 251); text-decoration-thickness: initial; text-decoration-style: initial; text-decoration-color: initial;&quot;&gt;&#xa;&#xa;" style="ellipse;whiteSpace=wrap;html=1;" vertex="1" parent="1">
          <mxGeometry x="125" y="504" width="120" height="80" as="geometry" />
        </mxCell>
        <mxCell id="u4SSPRo8e84aIvEriqBu-10" value="" style="endArrow=classic;html=1;rounded=0;exitX=1;exitY=0.5;exitDx=0;exitDy=0;entryX=0;entryY=0.5;entryDx=0;entryDy=0;" edge="1" parent="1" source="u4SSPRo8e84aIvEriqBu-9" target="u4SSPRo8e84aIvEriqBu-8">
          <mxGeometry width="50" height="50" relative="1" as="geometry">
            <mxPoint x="272" y="574" as="sourcePoint" />
            <mxPoint x="322" y="524" as="targetPoint" />
          </mxGeometry>
        </mxCell>
        <mxCell id="u4SSPRo8e84aIvEriqBu-15" value="&#xa;Библиотекарь&#xa;&#xa;" style="ellipse;whiteSpace=wrap;html=1;" vertex="1" parent="1">
          <mxGeometry x="118" y="247" width="120" height="80" as="geometry" />
        </mxCell>
        <mxCell id="u4SSPRo8e84aIvEriqBu-16" value="" style="endArrow=classic;html=1;rounded=0;exitX=1;exitY=0.5;exitDx=0;exitDy=0;entryX=0;entryY=0.5;entryDx=0;entryDy=0;" edge="1" parent="1" source="u4SSPRo8e84aIvEriqBu-15" target="u4SSPRo8e84aIvEriqBu-5">
          <mxGeometry width="50" height="50" relative="1" as="geometry">
            <mxPoint x="280" y="441" as="sourcePoint" />
            <mxPoint x="330" y="391" as="targetPoint" />
          </mxGeometry>
        </mxCell>
        <mxCell id="u4SSPRo8e84aIvEriqBu-17" value="База данных" style="ellipse;whiteSpace=wrap;html=1;" vertex="1" parent="1">
          <mxGeometry x="469.5" y="505" width="120" height="80" as="geometry" />
        </mxCell>
        <mxCell id="u4SSPRo8e84aIvEriqBu-18" value="" style="endArrow=classic;html=1;rounded=0;exitX=0;exitY=0.5;exitDx=0;exitDy=0;" edge="1" parent="1" source="u4SSPRo8e84aIvEriqBu-17" target="u4SSPRo8e84aIvEriqBu-8">
          <mxGeometry width="50" height="50" relative="1" as="geometry">
            <mxPoint x="547" y="550" as="sourcePoint" />
            <mxPoint x="597" y="500" as="targetPoint" />
          </mxGeometry>
        </mxCell>
        <mxCell id="u4SSPRo8e84aIvEriqBu-19" value="" style="rhombus;whiteSpace=wrap;html=1;" vertex="1" parent="1">
          <mxGeometry x="353" y="343" width="40" height="41" as="geometry" />
        </mxCell>
        <mxCell id="u4SSPRo8e84aIvEriqBu-20" value="Действия с посетителем закончены" style="shape=hexagon;perimeter=hexagonPerimeter2;whiteSpace=wrap;html=1;fixedSize=1;" vertex="1" parent="1">
          <mxGeometry x="740" y="323.5" width="120" height="80" as="geometry" />
        </mxCell>
        <mxCell id="u4SSPRo8e84aIvEriqBu-22" value="" style="endArrow=classic;html=1;rounded=0;exitX=0.5;exitY=1;exitDx=0;exitDy=0;entryX=0.5;entryY=0;entryDx=0;entryDy=0;" edge="1" parent="1" source="u4SSPRo8e84aIvEriqBu-5" target="u4SSPRo8e84aIvEriqBu-19">
          <mxGeometry width="50" height="50" relative="1" as="geometry">
            <mxPoint x="358" y="467" as="sourcePoint" />
            <mxPoint x="408" y="417" as="targetPoint" />
          </mxGeometry>
        </mxCell>
        <mxCell id="u4SSPRo8e84aIvEriqBu-23" value="" style="endArrow=classic;html=1;rounded=0;exitX=0.5;exitY=1;exitDx=0;exitDy=0;entryX=0.5;entryY=0;entryDx=0;entryDy=0;" edge="1" parent="1" source="u4SSPRo8e84aIvEriqBu-19" target="u4SSPRo8e84aIvEriqBu-72">
          <mxGeometry width="50" height="50" relative="1" as="geometry">
            <mxPoint x="449" y="480" as="sourcePoint" />
            <mxPoint x="380" y="420" as="targetPoint" />
          </mxGeometry>
        </mxCell>
        <mxCell id="u4SSPRo8e84aIvEriqBu-24" value="Данные внесены&lt;br&gt;" style="shape=hexagon;perimeter=hexagonPerimeter2;whiteSpace=wrap;html=1;fixedSize=1;" vertex="1" parent="1">
          <mxGeometry x="313" y="589" width="120" height="80" as="geometry" />
        </mxCell>
        <mxCell id="u4SSPRo8e84aIvEriqBu-25" value="" style="endArrow=classic;html=1;rounded=0;exitX=0.5;exitY=1;exitDx=0;exitDy=0;entryX=0.5;entryY=0;entryDx=0;entryDy=0;" edge="1" parent="1" source="u4SSPRo8e84aIvEriqBu-8" target="u4SSPRo8e84aIvEriqBu-24">
          <mxGeometry width="50" height="50" relative="1" as="geometry">
            <mxPoint x="433" y="663" as="sourcePoint" />
            <mxPoint x="503.71067811865476" y="613" as="targetPoint" />
          </mxGeometry>
        </mxCell>
        <mxCell id="u4SSPRo8e84aIvEriqBu-26" value="Распечатать Читательский формуляр" style="rounded=0;whiteSpace=wrap;html=1;" vertex="1" parent="1">
          <mxGeometry x="313" y="713" width="120" height="60" as="geometry" />
        </mxCell>
        <mxCell id="u4SSPRo8e84aIvEriqBu-27" value="" style="endArrow=classic;html=1;rounded=0;exitX=0.5;exitY=1;exitDx=0;exitDy=0;" edge="1" parent="1" source="u4SSPRo8e84aIvEriqBu-24" target="u4SSPRo8e84aIvEriqBu-26">
          <mxGeometry width="50" height="50" relative="1" as="geometry">
            <mxPoint x="506" y="741" as="sourcePoint" />
            <mxPoint x="556" y="691" as="targetPoint" />
          </mxGeometry>
        </mxCell>
        <mxCell id="u4SSPRo8e84aIvEriqBu-28" value="распечатанный формуляр" style="shape=hexagon;perimeter=hexagonPerimeter2;whiteSpace=wrap;html=1;fixedSize=1;" vertex="1" parent="1">
          <mxGeometry x="313" y="811" width="120" height="80" as="geometry" />
        </mxCell>
        <mxCell id="u4SSPRo8e84aIvEriqBu-29" value="" style="endArrow=classic;html=1;rounded=0;exitX=0.5;exitY=1;exitDx=0;exitDy=0;entryX=0.5;entryY=0;entryDx=0;entryDy=0;" edge="1" parent="1" source="u4SSPRo8e84aIvEriqBu-26" target="u4SSPRo8e84aIvEriqBu-28">
          <mxGeometry width="50" height="50" relative="1" as="geometry">
            <mxPoint x="515" y="856" as="sourcePoint" />
            <mxPoint x="565" y="806" as="targetPoint" />
          </mxGeometry>
        </mxCell>
        <mxCell id="u4SSPRo8e84aIvEriqBu-30" value="Предоставить на подпись&lt;br/&gt;читателю&amp;nbsp;" style="rounded=0;whiteSpace=wrap;html=1;" vertex="1" parent="1">
          <mxGeometry x="313" y="925" width="120" height="60" as="geometry" />
        </mxCell>
        <mxCell id="u4SSPRo8e84aIvEriqBu-31" value="" style="endArrow=classic;html=1;rounded=0;exitX=0.5;exitY=1;exitDx=0;exitDy=0;" edge="1" parent="1" source="u4SSPRo8e84aIvEriqBu-28" target="u4SSPRo8e84aIvEriqBu-30">
          <mxGeometry width="50" height="50" relative="1" as="geometry">
            <mxPoint x="562" y="964" as="sourcePoint" />
            <mxPoint x="612" y="914" as="targetPoint" />
          </mxGeometry>
        </mxCell>
        <mxCell id="u4SSPRo8e84aIvEriqBu-33" value="Пришел новый посетитель" style="shape=hexagon;perimeter=hexagonPerimeter2;whiteSpace=wrap;html=1;fixedSize=1;" vertex="1" parent="1">
          <mxGeometry x="320" y="86" width="120" height="80" as="geometry" />
        </mxCell>
        <mxCell id="u4SSPRo8e84aIvEriqBu-34" value="" style="endArrow=classic;html=1;rounded=0;exitX=0.5;exitY=1;exitDx=0;exitDy=0;" edge="1" parent="1" source="u4SSPRo8e84aIvEriqBu-33" target="u4SSPRo8e84aIvEriqBu-5">
          <mxGeometry width="50" height="50" relative="1" as="geometry">
            <mxPoint x="493" y="194" as="sourcePoint" />
            <mxPoint x="373" y="229" as="targetPoint" />
          </mxGeometry>
        </mxCell>
        <mxCell id="u4SSPRo8e84aIvEriqBu-37" value="&#xa;Выдать книгу&#xa;&#xa;" style="rounded=0;whiteSpace=wrap;html=1;" vertex="1" parent="1">
          <mxGeometry x="467" y="1105" width="120" height="60" as="geometry" />
        </mxCell>
        <mxCell id="u4SSPRo8e84aIvEriqBu-38" value="Подписанный документ" style="shape=hexagon;perimeter=hexagonPerimeter2;whiteSpace=wrap;html=1;fixedSize=1;" vertex="1" parent="1">
          <mxGeometry x="469.5" y="995" width="120" height="80" as="geometry" />
        </mxCell>
        <mxCell id="u4SSPRo8e84aIvEriqBu-40" value="" style="rhombus;whiteSpace=wrap;html=1;" vertex="1" parent="1">
          <mxGeometry x="508" y="935.5" width="43" height="39" as="geometry" />
        </mxCell>
        <mxCell id="u4SSPRo8e84aIvEriqBu-43" value="" style="endArrow=classic;html=1;rounded=0;exitX=1;exitY=0.5;exitDx=0;exitDy=0;entryX=0;entryY=0.5;entryDx=0;entryDy=0;" edge="1" parent="1" source="u4SSPRo8e84aIvEriqBu-30" target="u4SSPRo8e84aIvEriqBu-40">
          <mxGeometry width="50" height="50" relative="1" as="geometry">
            <mxPoint x="433" y="796" as="sourcePoint" />
            <mxPoint x="483" y="746" as="targetPoint" />
          </mxGeometry>
        </mxCell>
        <mxCell id="u4SSPRo8e84aIvEriqBu-44" value="не Подписанный документ" style="shape=hexagon;perimeter=hexagonPerimeter2;whiteSpace=wrap;html=1;fixedSize=1;" vertex="1" parent="1">
          <mxGeometry x="628" y="912" width="120" height="80" as="geometry" />
        </mxCell>
        <mxCell id="u4SSPRo8e84aIvEriqBu-45" value="" style="endArrow=classic;html=1;rounded=0;exitX=1;exitY=0.5;exitDx=0;exitDy=0;entryX=0;entryY=0.5;entryDx=0;entryDy=0;" edge="1" parent="1" source="u4SSPRo8e84aIvEriqBu-40" target="u4SSPRo8e84aIvEriqBu-44">
          <mxGeometry width="50" height="50" relative="1" as="geometry">
            <mxPoint x="567" y="943" as="sourcePoint" />
            <mxPoint x="617" y="893" as="targetPoint" />
          </mxGeometry>
        </mxCell>
        <mxCell id="u4SSPRo8e84aIvEriqBu-46" value="" style="endArrow=classic;html=1;rounded=0;exitX=0.5;exitY=1;exitDx=0;exitDy=0;" edge="1" parent="1" source="u4SSPRo8e84aIvEriqBu-40" target="u4SSPRo8e84aIvEriqBu-38">
          <mxGeometry width="50" height="50" relative="1" as="geometry">
            <mxPoint x="646" y="1105" as="sourcePoint" />
            <mxPoint x="696" y="1055" as="targetPoint" />
          </mxGeometry>
        </mxCell>
        <mxCell id="u4SSPRo8e84aIvEriqBu-47" value="" style="endArrow=classic;html=1;rounded=0;entryX=0.5;entryY=1;entryDx=0;entryDy=0;" edge="1" parent="1" source="u4SSPRo8e84aIvEriqBu-44" target="u4SSPRo8e84aIvEriqBu-68">
          <mxGeometry width="50" height="50" relative="1" as="geometry">
            <mxPoint x="622" y="861" as="sourcePoint" />
            <mxPoint x="672" y="811" as="targetPoint" />
          </mxGeometry>
        </mxCell>
        <mxCell id="u4SSPRo8e84aIvEriqBu-49" value="Отказ клиента подписать доукемент" style="shape=document;whiteSpace=wrap;html=1;boundedLbl=1;" vertex="1" parent="1">
          <mxGeometry x="587" y="227" width="120" height="80" as="geometry" />
        </mxCell>
        <mxCell id="u4SSPRo8e84aIvEriqBu-50" value="" style="endArrow=classic;html=1;rounded=0;entryX=0.75;entryY=1;entryDx=0;entryDy=0;" edge="1" parent="1" source="u4SSPRo8e84aIvEriqBu-49" target="u4SSPRo8e84aIvEriqBu-68">
          <mxGeometry width="50" height="50" relative="1" as="geometry">
            <mxPoint x="757" y="552" as="sourcePoint" />
            <mxPoint x="807" y="502" as="targetPoint" />
          </mxGeometry>
        </mxCell>
        <mxCell id="u4SSPRo8e84aIvEriqBu-51" value="" style="endArrow=classic;html=1;rounded=0;exitX=0.5;exitY=1;exitDx=0;exitDy=0;" edge="1" parent="1" source="u4SSPRo8e84aIvEriqBu-38" target="u4SSPRo8e84aIvEriqBu-37">
          <mxGeometry width="50" height="50" relative="1" as="geometry">
            <mxPoint x="631" y="1158" as="sourcePoint" />
            <mxPoint x="681" y="1108" as="targetPoint" />
          </mxGeometry>
        </mxCell>
        <mxCell id="u4SSPRo8e84aIvEriqBu-52" value="" style="endArrow=classic;html=1;rounded=0;exitX=0.5;exitY=1;exitDx=0;exitDy=0;entryX=0.5;entryY=0;entryDx=0;entryDy=0;" edge="1" parent="1" source="u4SSPRo8e84aIvEriqBu-37" target="u4SSPRo8e84aIvEriqBu-6">
          <mxGeometry width="50" height="50" relative="1" as="geometry">
            <mxPoint x="345" y="1242" as="sourcePoint" />
            <mxPoint x="395" y="1192" as="targetPoint" />
          </mxGeometry>
        </mxCell>
        <mxCell id="u4SSPRo8e84aIvEriqBu-55" value="Продажа зарубежного тура " style="swimlane;horizontal=0;whiteSpace=wrap;html=1;" vertex="1" parent="1">
          <mxGeometry x="1107" y="11" width="1545" height="886" as="geometry" />
        </mxCell>
        <mxCell id="u4SSPRo8e84aIvEriqBu-56" value="менеджер турагентства" style="swimlane;horizontal=0;whiteSpace=wrap;html=1;startSize=23;" vertex="1" parent="u4SSPRo8e84aIvEriqBu-55">
          <mxGeometry x="22" y="4" width="1416" height="881" as="geometry" />
        </mxCell>
        <mxCell id="u4SSPRo8e84aIvEriqBu-61" value="" style="ellipse;whiteSpace=wrap;html=1;aspect=fixed;" vertex="1" parent="u4SSPRo8e84aIvEriqBu-56">
          <mxGeometry x="43" y="46" width="32" height="32" as="geometry" />
        </mxCell>
        <mxCell id="u4SSPRo8e84aIvEriqBu-62" value="&#xa;Выявить потребность&#xa;&#xa;" style="rounded=1;whiteSpace=wrap;html=1;" vertex="1" parent="u4SSPRo8e84aIvEriqBu-56">
          <mxGeometry x="102" y="36" width="120" height="60" as="geometry" />
        </mxCell>
        <mxCell id="u4SSPRo8e84aIvEriqBu-63" value="" style="endArrow=classic;html=1;rounded=0;exitX=1;exitY=0.5;exitDx=0;exitDy=0;entryX=0;entryY=0.5;entryDx=0;entryDy=0;" edge="1" parent="u4SSPRo8e84aIvEriqBu-56" source="u4SSPRo8e84aIvEriqBu-61" target="u4SSPRo8e84aIvEriqBu-62">
          <mxGeometry width="50" height="50" relative="1" as="geometry">
            <mxPoint x="191" y="154" as="sourcePoint" />
            <mxPoint x="241" y="104" as="targetPoint" />
          </mxGeometry>
        </mxCell>
        <mxCell id="u4SSPRo8e84aIvEriqBu-64" value="Тур продан&lt;br&gt;" style="rounded=1;whiteSpace=wrap;html=1;" vertex="1" parent="u4SSPRo8e84aIvEriqBu-56">
          <mxGeometry x="1275" y="168" width="120" height="60" as="geometry" />
        </mxCell>
        <mxCell id="u4SSPRo8e84aIvEriqBu-65" value="" style="rhombus;whiteSpace=wrap;html=1;" vertex="1" parent="u4SSPRo8e84aIvEriqBu-56">
          <mxGeometry x="122" y="185" width="80" height="80" as="geometry" />
        </mxCell>
        <mxCell id="u4SSPRo8e84aIvEriqBu-77" value="" style="endArrow=classic;html=1;rounded=0;exitX=0.5;exitY=1;exitDx=0;exitDy=0;entryX=0.5;entryY=0;entryDx=0;entryDy=0;" edge="1" parent="u4SSPRo8e84aIvEriqBu-56" source="u4SSPRo8e84aIvEriqBu-62" target="u4SSPRo8e84aIvEriqBu-65">
          <mxGeometry width="50" height="50" relative="1" as="geometry">
            <mxPoint x="231" y="148" as="sourcePoint" />
            <mxPoint x="281" y="98" as="targetPoint" />
          </mxGeometry>
        </mxCell>
        <mxCell id="u4SSPRo8e84aIvEriqBu-142" value="Оплата принята" style="rounded=1;whiteSpace=wrap;html=1;" vertex="1" parent="u4SSPRo8e84aIvEriqBu-56">
          <mxGeometry x="1110" y="332" width="120" height="60" as="geometry" />
        </mxCell>
        <mxCell id="u4SSPRo8e84aIvEriqBu-143" value="Подготовить&lt;br/&gt;документы" style="rounded=1;whiteSpace=wrap;html=1;" vertex="1" parent="u4SSPRo8e84aIvEriqBu-56">
          <mxGeometry x="1275" y="332" width="120" height="60" as="geometry" />
        </mxCell>
        <mxCell id="u4SSPRo8e84aIvEriqBu-144" value="" style="endArrow=classic;html=1;rounded=0;entryX=0;entryY=0.5;entryDx=0;entryDy=0;" edge="1" parent="u4SSPRo8e84aIvEriqBu-56" source="u4SSPRo8e84aIvEriqBu-142" target="u4SSPRo8e84aIvEriqBu-143">
          <mxGeometry width="50" height="50" relative="1" as="geometry">
            <mxPoint x="1114" y="373" as="sourcePoint" />
            <mxPoint x="1164" y="323" as="targetPoint" />
          </mxGeometry>
        </mxCell>
        <mxCell id="u4SSPRo8e84aIvEriqBu-145" value="" style="endArrow=classic;html=1;rounded=0;entryX=0.5;entryY=1;entryDx=0;entryDy=0;exitX=0.5;exitY=0;exitDx=0;exitDy=0;" edge="1" parent="u4SSPRo8e84aIvEriqBu-56" source="u4SSPRo8e84aIvEriqBu-143" target="u4SSPRo8e84aIvEriqBu-64">
          <mxGeometry width="50" height="50" relative="1" as="geometry">
            <mxPoint x="1182" y="298" as="sourcePoint" />
            <mxPoint x="1232" y="248" as="targetPoint" />
          </mxGeometry>
        </mxCell>
        <mxCell id="u4SSPRo8e84aIvEriqBu-66" value="Подобрать отель" style="rounded=1;whiteSpace=wrap;html=1;" vertex="1" parent="u4SSPRo8e84aIvEriqBu-56">
          <mxGeometry x="98" y="287" width="120" height="60" as="geometry" />
        </mxCell>
        <mxCell id="u4SSPRo8e84aIvEriqBu-79" value="Отель подходит клиенту" style="rounded=1;whiteSpace=wrap;html=1;" vertex="1" parent="u4SSPRo8e84aIvEriqBu-56">
          <mxGeometry x="98" y="365" width="120" height="60" as="geometry" />
        </mxCell>
        <mxCell id="u4SSPRo8e84aIvEriqBu-80" value="Подобрать вид транспорта" style="rounded=1;whiteSpace=wrap;html=1;" vertex="1" parent="u4SSPRo8e84aIvEriqBu-56">
          <mxGeometry x="308" y="468" width="120" height="60" as="geometry" />
        </mxCell>
        <mxCell id="u4SSPRo8e84aIvEriqBu-83" value="" style="rhombus;whiteSpace=wrap;html=1;" vertex="1" parent="u4SSPRo8e84aIvEriqBu-56">
          <mxGeometry x="240" y="379.5" width="45" height="31" as="geometry" />
        </mxCell>
        <mxCell id="u4SSPRo8e84aIvEriqBu-92" value="Транспорт подходит клиенту" style="rounded=1;whiteSpace=wrap;html=1;" vertex="1" parent="u4SSPRo8e84aIvEriqBu-56">
          <mxGeometry x="310" y="559" width="120" height="60" as="geometry" />
        </mxCell>
        <mxCell id="u4SSPRo8e84aIvEriqBu-94" value="Отель&lt;br/&gt;забронирован" style="rounded=1;whiteSpace=wrap;html=1;" vertex="1" parent="u4SSPRo8e84aIvEriqBu-56">
          <mxGeometry x="308" y="365" width="120" height="60" as="geometry" />
        </mxCell>
        <mxCell id="u4SSPRo8e84aIvEriqBu-97" value="" style="endArrow=classic;html=1;rounded=0;entryX=1;entryY=0.5;entryDx=0;entryDy=0;exitX=0.5;exitY=0;exitDx=0;exitDy=0;" edge="1" parent="u4SSPRo8e84aIvEriqBu-56" source="u4SSPRo8e84aIvEriqBu-83" target="u4SSPRo8e84aIvEriqBu-65">
          <mxGeometry width="50" height="50" relative="1" as="geometry">
            <mxPoint x="219" y="378" as="sourcePoint" />
            <mxPoint x="269" y="328" as="targetPoint" />
            <Array as="points">
              <mxPoint x="262" y="317" />
            </Array>
          </mxGeometry>
        </mxCell>
        <mxCell id="u4SSPRo8e84aIvEriqBu-98" value="" style="endArrow=classic;html=1;rounded=0;exitX=1;exitY=0.5;exitDx=0;exitDy=0;entryX=0;entryY=0.5;entryDx=0;entryDy=0;" edge="1" parent="u4SSPRo8e84aIvEriqBu-56" source="u4SSPRo8e84aIvEriqBu-79" target="u4SSPRo8e84aIvEriqBu-83">
          <mxGeometry width="50" height="50" relative="1" as="geometry">
            <mxPoint x="147" y="490" as="sourcePoint" />
            <mxPoint x="197" y="440" as="targetPoint" />
          </mxGeometry>
        </mxCell>
        <mxCell id="u4SSPRo8e84aIvEriqBu-99" value="" style="endArrow=classic;html=1;rounded=0;exitX=0.5;exitY=1;exitDx=0;exitDy=0;entryX=0.5;entryY=0;entryDx=0;entryDy=0;" edge="1" parent="u4SSPRo8e84aIvEriqBu-56" source="u4SSPRo8e84aIvEriqBu-66" target="u4SSPRo8e84aIvEriqBu-79">
          <mxGeometry width="50" height="50" relative="1" as="geometry">
            <mxPoint x="150" y="461" as="sourcePoint" />
            <mxPoint x="200" y="411" as="targetPoint" />
          </mxGeometry>
        </mxCell>
        <mxCell id="u4SSPRo8e84aIvEriqBu-100" value="" style="endArrow=classic;html=1;rounded=0;exitX=1;exitY=0.5;exitDx=0;exitDy=0;" edge="1" parent="u4SSPRo8e84aIvEriqBu-56" source="u4SSPRo8e84aIvEriqBu-83" target="u4SSPRo8e84aIvEriqBu-94">
          <mxGeometry width="50" height="50" relative="1" as="geometry">
            <mxPoint x="249" y="450" as="sourcePoint" />
            <mxPoint x="299" y="400" as="targetPoint" />
          </mxGeometry>
        </mxCell>
        <mxCell id="u4SSPRo8e84aIvEriqBu-101" value="" style="endArrow=classic;html=1;rounded=0;exitX=0.5;exitY=1;exitDx=0;exitDy=0;" edge="1" parent="u4SSPRo8e84aIvEriqBu-56" source="u4SSPRo8e84aIvEriqBu-94" target="u4SSPRo8e84aIvEriqBu-80">
          <mxGeometry width="50" height="50" relative="1" as="geometry">
            <mxPoint x="273" y="578" as="sourcePoint" />
            <mxPoint x="323" y="528" as="targetPoint" />
          </mxGeometry>
        </mxCell>
        <mxCell id="u4SSPRo8e84aIvEriqBu-102" value="" style="endArrow=classic;html=1;rounded=0;exitX=0.5;exitY=1;exitDx=0;exitDy=0;entryX=0.5;entryY=0;entryDx=0;entryDy=0;" edge="1" parent="u4SSPRo8e84aIvEriqBu-56" source="u4SSPRo8e84aIvEriqBu-80" target="u4SSPRo8e84aIvEriqBu-92">
          <mxGeometry width="50" height="50" relative="1" as="geometry">
            <mxPoint x="378" y="435" as="sourcePoint" />
            <mxPoint x="378" y="478" as="targetPoint" />
          </mxGeometry>
        </mxCell>
        <mxCell id="u4SSPRo8e84aIvEriqBu-103" value="" style="rhombus;whiteSpace=wrap;html=1;" vertex="1" parent="u4SSPRo8e84aIvEriqBu-56">
          <mxGeometry x="470" y="588" width="45" height="31" as="geometry" />
        </mxCell>
        <mxCell id="u4SSPRo8e84aIvEriqBu-107" value="Вид транспорта выбран" style="rounded=1;whiteSpace=wrap;html=1;" vertex="1" parent="u4SSPRo8e84aIvEriqBu-56">
          <mxGeometry x="589" y="572" width="120" height="60" as="geometry" />
        </mxCell>
        <mxCell id="u4SSPRo8e84aIvEriqBu-127" value="Подобрать билеты" style="rounded=1;whiteSpace=wrap;html=1;" vertex="1" parent="u4SSPRo8e84aIvEriqBu-56">
          <mxGeometry x="589" y="752" width="120" height="60" as="geometry" />
        </mxCell>
        <mxCell id="u4SSPRo8e84aIvEriqBu-128" value="" style="endArrow=classic;html=1;rounded=0;exitX=0.5;exitY=1;exitDx=0;exitDy=0;" edge="1" parent="u4SSPRo8e84aIvEriqBu-56" source="u4SSPRo8e84aIvEriqBu-107" target="u4SSPRo8e84aIvEriqBu-127">
          <mxGeometry width="50" height="50" relative="1" as="geometry">
            <mxPoint x="695" y="797" as="sourcePoint" />
            <mxPoint x="745" y="747" as="targetPoint" />
          </mxGeometry>
        </mxCell>
        <mxCell id="u4SSPRo8e84aIvEriqBu-129" value="" style="rhombus;whiteSpace=wrap;html=1;" vertex="1" parent="u4SSPRo8e84aIvEriqBu-56">
          <mxGeometry x="1025" y="766.5" width="45" height="31" as="geometry" />
        </mxCell>
        <mxCell id="u4SSPRo8e84aIvEriqBu-133" value="Билеты забронированы" style="rounded=1;whiteSpace=wrap;html=1;" vertex="1" parent="u4SSPRo8e84aIvEriqBu-56">
          <mxGeometry x="721" y="752" width="120" height="60" as="geometry" />
        </mxCell>
        <mxCell id="u4SSPRo8e84aIvEriqBu-134" value="Принять оплату" style="rounded=1;whiteSpace=wrap;html=1;" vertex="1" parent="u4SSPRo8e84aIvEriqBu-56">
          <mxGeometry x="867" y="752" width="120" height="60" as="geometry" />
        </mxCell>
        <mxCell id="u4SSPRo8e84aIvEriqBu-130" value="" style="endArrow=classic;html=1;rounded=0;exitX=1;exitY=0.5;exitDx=0;exitDy=0;entryX=0;entryY=0.5;entryDx=0;entryDy=0;" edge="1" parent="u4SSPRo8e84aIvEriqBu-56" source="u4SSPRo8e84aIvEriqBu-127" target="u4SSPRo8e84aIvEriqBu-133">
          <mxGeometry width="50" height="50" relative="1" as="geometry">
            <mxPoint x="782" y="709" as="sourcePoint" />
            <mxPoint x="743" y="735" as="targetPoint" />
          </mxGeometry>
        </mxCell>
        <mxCell id="u4SSPRo8e84aIvEriqBu-135" value="" style="endArrow=classic;html=1;rounded=0;exitX=1;exitY=0.5;exitDx=0;exitDy=0;entryX=0;entryY=0.5;entryDx=0;entryDy=0;" edge="1" parent="u4SSPRo8e84aIvEriqBu-56" source="u4SSPRo8e84aIvEriqBu-133" target="u4SSPRo8e84aIvEriqBu-134">
          <mxGeometry width="50" height="50" relative="1" as="geometry">
            <mxPoint x="249" y="810" as="sourcePoint" />
            <mxPoint x="299" y="760" as="targetPoint" />
          </mxGeometry>
        </mxCell>
        <mxCell id="u4SSPRo8e84aIvEriqBu-136" value="" style="endArrow=classic;html=1;rounded=0;exitX=1;exitY=0.5;exitDx=0;exitDy=0;entryX=0;entryY=0.5;entryDx=0;entryDy=0;" edge="1" parent="u4SSPRo8e84aIvEriqBu-56" source="u4SSPRo8e84aIvEriqBu-134" target="u4SSPRo8e84aIvEriqBu-129">
          <mxGeometry width="50" height="50" relative="1" as="geometry">
            <mxPoint x="270" y="883" as="sourcePoint" />
            <mxPoint x="320" y="833" as="targetPoint" />
          </mxGeometry>
        </mxCell>
        <mxCell id="u4SSPRo8e84aIvEriqBu-137" value="" style="ellipse;whiteSpace=wrap;html=1;aspect=fixed;" vertex="1" parent="u4SSPRo8e84aIvEriqBu-56">
          <mxGeometry x="1032" y="686" width="31" height="31" as="geometry" />
        </mxCell>
        <mxCell id="u4SSPRo8e84aIvEriqBu-138" value="" style="endArrow=classic;html=1;rounded=0;exitX=0.5;exitY=0;exitDx=0;exitDy=0;entryX=0.5;entryY=1;entryDx=0;entryDy=0;" edge="1" parent="u4SSPRo8e84aIvEriqBu-56" source="u4SSPRo8e84aIvEriqBu-129" target="u4SSPRo8e84aIvEriqBu-137">
          <mxGeometry width="50" height="50" relative="1" as="geometry">
            <mxPoint x="441" y="886" as="sourcePoint" />
            <mxPoint x="1224" y="661" as="targetPoint" />
          </mxGeometry>
        </mxCell>
        <mxCell id="u4SSPRo8e84aIvEriqBu-78" value="" style="endArrow=classic;html=1;rounded=0;exitX=0.5;exitY=1;exitDx=0;exitDy=0;entryX=0.5;entryY=0;entryDx=0;entryDy=0;" edge="1" parent="u4SSPRo8e84aIvEriqBu-56" source="u4SSPRo8e84aIvEriqBu-65" target="u4SSPRo8e84aIvEriqBu-66">
          <mxGeometry width="50" height="50" relative="1" as="geometry">
            <mxPoint x="165" y="386" as="sourcePoint" />
            <mxPoint x="215" y="336" as="targetPoint" />
          </mxGeometry>
        </mxCell>
        <mxCell id="u4SSPRo8e84aIvEriqBu-141" value="" style="endArrow=classic;html=1;rounded=0;exitX=1;exitY=0.5;exitDx=0;exitDy=0;entryX=0.5;entryY=1;entryDx=0;entryDy=0;" edge="1" parent="u4SSPRo8e84aIvEriqBu-56" source="u4SSPRo8e84aIvEriqBu-129" target="u4SSPRo8e84aIvEriqBu-142">
          <mxGeometry width="50" height="50" relative="1" as="geometry">
            <mxPoint x="287" y="857" as="sourcePoint" />
            <mxPoint x="530" y="392" as="targetPoint" />
            <Array as="points">
              <mxPoint x="1158" y="782" />
            </Array>
          </mxGeometry>
        </mxCell>
        <mxCell id="u4SSPRo8e84aIvEriqBu-148" value="" style="endArrow=classic;html=1;rounded=0;entryX=0.5;entryY=1;entryDx=0;entryDy=0;" edge="1" parent="u4SSPRo8e84aIvEriqBu-56" target="u4SSPRo8e84aIvEriqBu-79">
          <mxGeometry width="50" height="50" relative="1" as="geometry">
            <mxPoint x="147" y="994" as="sourcePoint" />
            <mxPoint x="202" y="751" as="targetPoint" />
          </mxGeometry>
        </mxCell>
        <mxCell id="u4SSPRo8e84aIvEriqBu-150" value="" style="endArrow=classic;html=1;rounded=0;entryX=1;entryY=0.5;entryDx=0;entryDy=0;exitX=0.5;exitY=0;exitDx=0;exitDy=0;" edge="1" parent="u4SSPRo8e84aIvEriqBu-56" source="u4SSPRo8e84aIvEriqBu-103" target="u4SSPRo8e84aIvEriqBu-80">
          <mxGeometry width="50" height="50" relative="1" as="geometry">
            <mxPoint x="466" y="554" as="sourcePoint" />
            <mxPoint x="516" y="504" as="targetPoint" />
            <Array as="points">
              <mxPoint x="496" y="495" />
            </Array>
          </mxGeometry>
        </mxCell>
        <mxCell id="u4SSPRo8e84aIvEriqBu-151" value="" style="endArrow=classic;html=1;rounded=0;exitX=1;exitY=0.75;exitDx=0;exitDy=0;entryX=0;entryY=0.5;entryDx=0;entryDy=0;" edge="1" parent="u4SSPRo8e84aIvEriqBu-56" source="u4SSPRo8e84aIvEriqBu-92" target="u4SSPRo8e84aIvEriqBu-103">
          <mxGeometry width="50" height="50" relative="1" as="geometry">
            <mxPoint x="465" y="740" as="sourcePoint" />
            <mxPoint x="515" y="690" as="targetPoint" />
          </mxGeometry>
        </mxCell>
        <mxCell id="u4SSPRo8e84aIvEriqBu-152" value="" style="endArrow=classic;html=1;rounded=0;entryX=0;entryY=0.5;entryDx=0;entryDy=0;exitX=1;exitY=0.5;exitDx=0;exitDy=0;" edge="1" parent="u4SSPRo8e84aIvEriqBu-56" source="u4SSPRo8e84aIvEriqBu-103" target="u4SSPRo8e84aIvEriqBu-107">
          <mxGeometry width="50" height="50" relative="1" as="geometry">
            <mxPoint x="520" y="719" as="sourcePoint" />
            <mxPoint x="570" y="669" as="targetPoint" />
          </mxGeometry>
        </mxCell>
        <mxCell id="u4SSPRo8e84aIvEriqBu-153" value="" style="endArrow=classic;html=1;rounded=0;entryX=0.5;entryY=1;entryDx=0;entryDy=0;" edge="1" parent="u4SSPRo8e84aIvEriqBu-56" target="u4SSPRo8e84aIvEriqBu-134">
          <mxGeometry width="50" height="50" relative="1" as="geometry">
            <mxPoint x="927" y="1003" as="sourcePoint" />
            <mxPoint x="840" y="825" as="targetPoint" />
          </mxGeometry>
        </mxCell>
        <mxCell id="u4SSPRo8e84aIvEriqBu-155" value="" style="endArrow=classic;html=1;rounded=0;" edge="1" parent="u4SSPRo8e84aIvEriqBu-56">
          <mxGeometry width="50" height="50" relative="1" as="geometry">
            <mxPoint x="788" y="995" as="sourcePoint" />
            <mxPoint x="784" y="820" as="targetPoint" />
          </mxGeometry>
        </mxCell>
        <mxCell id="u4SSPRo8e84aIvEriqBu-156" value="" style="endArrow=classic;html=1;rounded=0;entryX=0.5;entryY=1;entryDx=0;entryDy=0;" edge="1" parent="u4SSPRo8e84aIvEriqBu-56" target="u4SSPRo8e84aIvEriqBu-143">
          <mxGeometry width="50" height="50" relative="1" as="geometry">
            <mxPoint x="1335" y="999" as="sourcePoint" />
            <mxPoint x="1287" y="646" as="targetPoint" />
          </mxGeometry>
        </mxCell>
        <mxCell id="u4SSPRo8e84aIvEriqBu-149" value="" style="endArrow=classic;html=1;rounded=0;" edge="1" parent="u4SSPRo8e84aIvEriqBu-55">
          <mxGeometry width="50" height="50" relative="1" as="geometry">
            <mxPoint x="397" y="1002" as="sourcePoint" />
            <mxPoint x="394" y="624" as="targetPoint" />
          </mxGeometry>
        </mxCell>
        <mxCell id="u4SSPRo8e84aIvEriqBu-67" value="Документы не предоставлены" style="shape=hexagon;perimeter=hexagonPerimeter2;whiteSpace=wrap;html=1;fixedSize=1;" vertex="1" parent="1">
          <mxGeometry x="431" y="323.5" width="120" height="80" as="geometry" />
        </mxCell>
        <mxCell id="u4SSPRo8e84aIvEriqBu-68" value="Попрощаться с клиентом&lt;br&gt;" style="rounded=0;whiteSpace=wrap;html=1;" vertex="1" parent="1">
          <mxGeometry x="587" y="333.5" width="120" height="60" as="geometry" />
        </mxCell>
        <mxCell id="u4SSPRo8e84aIvEriqBu-69" value="" style="endArrow=classic;html=1;rounded=0;exitX=1;exitY=0.5;exitDx=0;exitDy=0;entryX=0;entryY=0.5;entryDx=0;entryDy=0;" edge="1" parent="1" source="u4SSPRo8e84aIvEriqBu-68" target="u4SSPRo8e84aIvEriqBu-20">
          <mxGeometry width="50" height="50" relative="1" as="geometry">
            <mxPoint x="683" y="382" as="sourcePoint" />
            <mxPoint x="733" y="332" as="targetPoint" />
          </mxGeometry>
        </mxCell>
        <mxCell id="u4SSPRo8e84aIvEriqBu-70" value="" style="endArrow=classic;html=1;rounded=0;exitX=1;exitY=0.5;exitDx=0;exitDy=0;entryX=0;entryY=0.5;entryDx=0;entryDy=0;" edge="1" parent="1" source="u4SSPRo8e84aIvEriqBu-67" target="u4SSPRo8e84aIvEriqBu-68">
          <mxGeometry width="50" height="50" relative="1" as="geometry">
            <mxPoint x="710" y="426" as="sourcePoint" />
            <mxPoint x="584" y="416" as="targetPoint" />
          </mxGeometry>
        </mxCell>
        <mxCell id="u4SSPRo8e84aIvEriqBu-71" value="" style="endArrow=classic;html=1;rounded=0;exitX=1;exitY=0.5;exitDx=0;exitDy=0;entryX=0;entryY=0.5;entryDx=0;entryDy=0;" edge="1" parent="1" source="u4SSPRo8e84aIvEriqBu-19" target="u4SSPRo8e84aIvEriqBu-67">
          <mxGeometry width="50" height="50" relative="1" as="geometry">
            <mxPoint x="506" y="389" as="sourcePoint" />
            <mxPoint x="556" y="339" as="targetPoint" />
          </mxGeometry>
        </mxCell>
        <mxCell id="u4SSPRo8e84aIvEriqBu-72" value="Документы предоставлены" style="shape=hexagon;perimeter=hexagonPerimeter2;whiteSpace=wrap;html=1;fixedSize=1;" vertex="1" parent="1">
          <mxGeometry x="313" y="407" width="120" height="80" as="geometry" />
        </mxCell>
        <mxCell id="u4SSPRo8e84aIvEriqBu-74" value="" style="endArrow=classic;html=1;rounded=0;exitX=0.5;exitY=1;exitDx=0;exitDy=0;entryX=0.5;entryY=0;entryDx=0;entryDy=0;" edge="1" parent="1" source="u4SSPRo8e84aIvEriqBu-72" target="u4SSPRo8e84aIvEriqBu-8">
          <mxGeometry width="50" height="50" relative="1" as="geometry">
            <mxPoint x="317" y="439" as="sourcePoint" />
            <mxPoint x="367" y="389" as="targetPoint" />
          </mxGeometry>
        </mxCell>
        <mxCell id="u4SSPRo8e84aIvEriqBu-60" value="Клиент&lt;br&gt;" style="swimlane;horizontal=0;whiteSpace=wrap;html=1;startSize=23;" vertex="1" parent="1">
          <mxGeometry x="1119" y="1016" width="1414" height="76" as="geometry" />
        </mxCell>
      </root>
    </mxGraphModel>
  </diagram>
</mxfile>
